<svg data-v-423bf9ae="" xmlns="http://www.w3.org/2000/svg" viewBox="0 0 521 90" class="iconLeft"><!----><!----><!----><g data-v-423bf9ae="" id="4b3ee891-1ffe-42a8-aca3-e07387039cc3" fill="#000000" transform="matrix(6.066733864221661,0,0,6.066733864221661,107.45196565166233,15.364005894061506)"><path d="M6.02-0.06L6.02-0.06Q6.55-0.06 6.85 0.17Q7.14 0.39 7.28 0.67L7.28 0.67Q7.43 0.99 7.46 1.39L7.46 1.39Q7.46 1.69 7.23 1.91Q7 2.13 6.72 2.13L6.72 2.13Q6.41 2.13 6.20 1.91Q5.98 1.69 5.98 1.39L5.98 1.39Q5.98 1.08 6.20 0.86Q6.41 0.64 6.72 0.64L6.72 0.64Q6.90 0.64 7.05 0.73Q7.20 0.81 7.31 0.94L7.31 0.94Q7.14 0.42 6.78 0.22Q6.43 0.03 6.02 0.03L6.02 0.03L3.26 0.03L3.26 4.84L6.02 4.84L6.02 4.93L3.26 4.93L3.26 9.74L4.62 9.74L4.62 9.83L0.42 9.83L0.42 9.74L1.78 9.74L1.78 0.03L0.42 0.03L0.42-0.06L6.02-0.06ZM10.91 4.14L10.91 4.14Q11.44 4.16 11.73 4.37Q12.03 4.59 12.17 4.87L12.17 4.87Q12.32 5.19 12.35 5.59L12.35 5.59Q12.35 5.89 12.13 6.11Q11.91 6.33 11.61 6.33L11.61 6.33Q11.30 6.33 11.08 6.11Q10.86 5.89 10.86 5.59L10.86 5.59Q10.86 5.28 11.08 5.06Q11.30 4.84 11.61 4.84L11.61 4.84Q11.79 4.84 11.94 4.93Q12.08 5.01 12.19 5.14L12.19 5.14Q12.15 5.00 12.06 4.84Q11.97 4.68 11.82 4.54Q11.66 4.40 11.44 4.31Q11.21 4.23 10.91 4.23L10.91 4.23Q10.28 4.23 9.91 4.62Q9.55 5.01 9.55 5.60L9.55 5.60L9.55 9.74L10.88 9.74L10.88 9.83L6.71 9.83L6.71 9.74L8.06 9.74L8.06 4.23L6.71 4.23L6.71 4.14L9.55 4.14L9.55 5.14Q9.59 4.98 9.69 4.81Q9.79 4.63 9.94 4.49Q10.09 4.34 10.33 4.24Q10.57 4.14 10.91 4.14ZM15.96 4.14L15.96 4.14Q16.76 4.14 17.30 4.47Q17.84 4.79 18.17 5.24Q18.51 5.70 18.66 6.19Q18.80 6.68 18.80 7.03L18.80 7.03L14.60 7.03L14.60 8.39Q14.60 8.96 14.99 9.35Q15.39 9.74 15.96 9.74L15.96 9.74Q16.10 9.74 16.28 9.72Q16.46 9.69 16.65 9.63Q16.83 9.58 16.98 9.48Q17.12 9.38 17.21 9.25L17.21 9.25Q17.07 9.37 16.88 9.37L16.88 9.37Q16.67 9.37 16.53 9.22Q16.38 9.07 16.38 8.86L16.38 8.86Q16.38 8.65 16.53 8.50Q16.67 8.34 16.88 8.34L16.88 8.34Q17.09 8.34 17.25 8.50Q17.40 8.65 17.40 8.86L17.40 8.86Q17.40 9.23 17.18 9.42Q16.95 9.62 16.69 9.71Q16.42 9.80 16.20 9.81Q15.97 9.83 15.96 9.83L15.96 9.83Q15.25 9.83 14.71 9.58Q14.18 9.32 13.82 8.91Q13.47 8.50 13.29 7.99Q13.12 7.49 13.12 6.99L13.12 6.99Q13.12 6.40 13.34 5.89Q13.57 5.38 13.96 4.98Q14.35 4.59 14.86 4.37Q15.37 4.14 15.96 4.14ZM14.60 6.94L17.32 6.94L17.32 5.59Q17.32 5.57 17.29 5.35Q17.26 5.14 17.13 4.89Q17.00 4.63 16.72 4.43Q16.45 4.23 15.96 4.23L15.96 4.23Q15.47 4.23 15.20 4.43Q14.92 4.63 14.79 4.89Q14.66 5.14 14.63 5.35Q14.60 5.57 14.60 5.59L14.60 5.59L14.60 6.94ZM22.41 4.14L22.41 4.14Q23.21 4.14 23.75 4.47Q24.29 4.79 24.63 5.24Q24.96 5.70 25.11 6.19Q25.26 6.68 25.26 7.03L25.26 7.03L21.06 7.03L21.06 8.39Q21.06 8.96 21.45 9.35Q21.84 9.74 22.41 9.74L22.41 9.74Q22.55 9.74 22.74 9.72Q22.92 9.69 23.10 9.63Q23.28 9.58 23.43 9.48Q23.58 9.38 23.66 9.25L23.66 9.25Q23.52 9.37 23.34 9.37L23.34 9.37Q23.13 9.37 22.98 9.22Q22.83 9.07 22.83 8.86L22.83 8.86Q22.83 8.65 22.98 8.50Q23.13 8.34 23.34 8.34L23.34 8.34Q23.55 8.34 23.70 8.50Q23.86 8.65 23.86 8.86L23.86 8.86Q23.86 9.23 23.63 9.42Q23.41 9.62 23.14 9.71Q22.88 9.80 22.65 9.81Q22.43 9.83 22.41 9.83L22.41 9.83Q21.70 9.83 21.17 9.58Q20.64 9.32 20.28 8.91Q19.92 8.50 19.75 7.99Q19.57 7.49 19.57 6.99L19.57 6.99Q19.57 6.40 19.80 5.89Q20.02 5.38 20.41 4.98Q20.80 4.59 21.32 4.37Q21.83 4.14 22.41 4.14ZM21.06 6.94L23.77 6.94L23.77 5.59Q23.77 5.57 23.74 5.35Q23.72 5.14 23.58 4.89Q23.45 4.63 23.18 4.43Q22.90 4.23 22.41 4.23L22.41 4.23Q21.92 4.23 21.65 4.43Q21.38 4.63 21.25 4.89Q21.11 5.14 21.08 5.35Q21.06 5.57 21.06 5.59L21.06 5.59L21.06 6.94ZM28.52-0.06L28.52 9.74L29.88 9.74L29.88 9.83L25.68 9.83L25.68 9.74L27.03 9.74L27.03 0.03L25.68 0.03L25.68-0.06L28.52-0.06ZM34.50 8.40L34.50 5.59Q34.50 5.31 34.39 5.05Q34.29 4.80 34.10 4.62Q33.91 4.44 33.66 4.33Q33.42 4.23 33.14 4.23L33.14 4.23Q32.86 4.23 32.61 4.33Q32.35 4.44 32.17 4.63Q31.99 4.82 31.89 5.06Q31.78 5.31 31.78 5.59L31.78 5.59L31.78 8.40Q31.78 9.03 32.12 9.39Q32.47 9.76 33.14 9.76L33.14 9.76Q33.54 9.76 33.89 9.53Q34.24 9.30 34.40 8.90L34.40 8.90Q34.47 8.71 34.48 8.57Q34.50 8.43 34.50 8.40L34.50 8.40ZM35.98 9.74L37.34 9.74L37.34 9.83L34.50 9.83L34.50 9.48Q34.19 9.63 33.84 9.73Q33.49 9.83 33.14 9.83L33.14 9.83Q32.34 9.83 31.79 9.51Q31.25 9.20 30.91 8.75Q30.58 8.30 30.44 7.82Q30.30 7.34 30.30 6.99L30.30 6.99Q30.30 6.40 30.52 5.88Q30.74 5.36 31.13 4.98Q31.51 4.59 32.03 4.37Q32.55 4.14 33.14 4.14L33.14 4.14Q33.87 4.14 34.50 4.49L34.50 4.49L34.50 4.14L35.98 4.14L35.98 9.74ZM44.80 9.74L46.16 9.74L46.16 9.83L41.96 9.83L41.96 9.74L43.32 9.74L43.32 4.23Q42.97 4.23 42.59 4.35Q42.21 4.48 41.85 4.68Q41.50 4.87 41.17 5.12Q40.85 5.36 40.60 5.60L40.60 5.60L40.60 9.83L37.76 9.83L37.76 9.74L39.12 9.74L39.12 4.23L37.76 4.23L37.76 4.14L40.60 4.14L40.60 5.50Q40.87 5.25 41.19 5.01Q41.51 4.77 41.87 4.58Q42.24 4.38 42.62 4.26Q42.99 4.14 43.36 4.14L43.36 4.14Q43.36 4.14 43.58 4.17Q43.81 4.20 44.08 4.33Q44.35 4.47 44.58 4.76Q44.80 5.05 44.80 5.59L44.80 5.59L44.80 9.74ZM49.45 4.14L49.45 4.14Q49.67 4.14 49.92 4.20Q50.16 4.26 50.37 4.37Q50.58 4.48 50.72 4.67Q50.86 4.86 50.86 5.12L50.86 5.12Q50.86 5.33 50.71 5.48Q50.55 5.63 50.34 5.63L50.34 5.63Q50.13 5.63 49.99 5.48Q49.84 5.33 49.84 5.12L49.84 5.12Q49.84 4.91 49.99 4.77Q50.13 4.62 50.34 4.62L50.34 4.62Q50.53 4.62 50.67 4.73L50.67 4.73Q50.50 4.47 50.12 4.35Q49.74 4.23 49.45 4.23L49.45 4.23Q48.87 4.23 48.47 4.61Q48.06 5.00 48.06 5.59L48.06 5.59L48.06 8.39Q48.06 8.96 48.45 9.35Q48.85 9.74 49.42 9.74L49.42 9.74Q49.73 9.74 50.11 9.64Q50.48 9.53 50.67 9.25L50.67 9.25Q50.53 9.37 50.34 9.37L50.34 9.37Q50.13 9.37 49.99 9.21Q49.84 9.06 49.84 8.86L49.84 8.86Q49.84 8.65 49.99 8.50Q50.13 8.34 50.34 8.34L50.34 8.34Q50.54 8.34 50.70 8.50Q50.86 8.65 50.86 8.86L50.86 8.86Q50.86 9.23 50.67 9.42Q50.47 9.62 50.22 9.71Q49.97 9.80 49.73 9.81Q49.50 9.83 49.42 9.83L49.42 9.83Q48.83 9.83 48.31 9.60Q47.80 9.38 47.41 8.99Q47.03 8.61 46.80 8.09Q46.58 7.57 46.58 6.99L46.58 6.99Q46.58 6.10 46.86 5.56Q47.14 5.01 47.57 4.70Q47.99 4.38 48.50 4.26Q49 4.14 49.45 4.14ZM54.47 4.14L54.47 4.14Q55.27 4.14 55.81 4.47Q56.35 4.79 56.69 5.24Q57.02 5.70 57.17 6.19Q57.32 6.68 57.32 7.03L57.32 7.03L53.12 7.03L53.12 8.39Q53.12 8.96 53.51 9.35Q53.90 9.74 54.47 9.74L54.47 9.74Q54.61 9.74 54.80 9.72Q54.98 9.69 55.16 9.63Q55.34 9.58 55.49 9.48Q55.64 9.38 55.72 9.25L55.72 9.25Q55.58 9.37 55.40 9.37L55.40 9.37Q55.19 9.37 55.04 9.22Q54.89 9.07 54.89 8.86L54.89 8.86Q54.89 8.65 55.04 8.50Q55.19 8.34 55.40 8.34L55.40 8.34Q55.61 8.34 55.76 8.50Q55.92 8.65 55.92 8.86L55.92 8.86Q55.92 9.23 55.69 9.42Q55.47 9.62 55.20 9.71Q54.94 9.80 54.71 9.81Q54.49 9.83 54.47 9.83L54.47 9.83Q53.76 9.83 53.23 9.58Q52.70 9.32 52.34 8.91Q51.98 8.50 51.81 7.99Q51.63 7.49 51.63 6.99L51.63 6.99Q51.63 6.40 51.86 5.89Q52.08 5.38 52.47 4.98Q52.86 4.59 53.38 4.37Q53.89 4.14 54.47 4.14ZM53.12 6.94L55.83 6.94L55.83 5.59Q55.83 5.57 55.80 5.35Q55.78 5.14 55.64 4.89Q55.51 4.63 55.24 4.43Q54.96 4.23 54.47 4.23L54.47 4.23Q53.98 4.23 53.71 4.43Q53.44 4.63 53.31 4.89Q53.17 5.14 53.14 5.35Q53.12 5.57 53.12 5.59L53.12 5.59L53.12 6.94ZM61.94 4.14L61.94 4.14Q62.47 4.16 62.76 4.37Q63.06 4.59 63.20 4.87L63.20 4.87Q63.35 5.19 63.38 5.59L63.38 5.59Q63.38 5.89 63.16 6.11Q62.94 6.33 62.64 6.33L62.64 6.33Q62.33 6.33 62.11 6.11Q61.89 5.89 61.89 5.59L61.89 5.59Q61.89 5.28 62.11 5.06Q62.33 4.84 62.64 4.84L62.64 4.84Q62.82 4.84 62.97 4.93Q63.11 5.01 63.22 5.14L63.22 5.14Q63.18 5.00 63.09 4.84Q63 4.68 62.85 4.54Q62.69 4.40 62.47 4.31Q62.24 4.23 61.94 4.23L61.94 4.23Q61.31 4.23 60.94 4.62Q60.58 5.01 60.58 5.60L60.58 5.60L60.58 9.74L61.91 9.74L61.91 9.83L57.74 9.83L57.74 9.74L59.09 9.74L59.09 4.23L57.74 4.23L57.74 4.14L60.58 4.14L60.58 5.14Q60.62 4.98 60.72 4.81Q60.82 4.63 60.97 4.49Q61.12 4.34 61.36 4.24Q61.60 4.14 61.94 4.14ZM68.08 7.69L68.08 7.69Q68.08 8.37 67.77 8.84Q67.45 9.31 66.98 9.55Q66.50 9.80 65.94 9.81Q65.38 9.81 64.90 9.58Q64.43 9.35 64.11 8.88Q63.80 8.41 63.80 7.69L63.80 7.69Q63.80 7.38 64.02 7.16Q64.23 6.94 64.54 6.94L64.54 6.94Q64.85 6.94 65.06 7.16Q65.28 7.38 65.28 7.69L65.28 7.69Q65.28 7.99 65.06 8.21Q64.85 8.43 64.54 8.43L64.54 8.43Q64.15 8.43 63.92 8.11L63.92 8.11Q63.97 8.33 64.09 8.62Q64.20 8.90 64.43 9.16Q64.65 9.41 65.02 9.58Q65.39 9.74 65.94 9.74L65.94 9.74Q66.22 9.74 66.41 9.55Q66.60 9.37 66.60 9.09L66.60 9.09L66.60 6.29Q66.60 6.02 66.42 5.82Q66.25 5.63 65.94 5.63L65.94 5.63Q65.66 5.63 65.51 5.52Q65.37 5.40 65.30 5.26L65.30 5.26Q65.21 5.11 65.20 4.89L65.20 4.89Q65.21 4.68 65.30 4.52L65.30 4.52Q65.37 4.38 65.51 4.26Q65.66 4.14 65.94 4.14L65.94 4.14Q66.26 4.14 66.47 4.36Q66.68 4.58 66.68 4.89L66.68 4.89Q66.68 5.05 66.56 5.17Q66.44 5.28 66.29 5.28L66.29 5.28Q66.12 5.28 66.01 5.17Q65.90 5.05 65.90 4.89L65.90 4.89Q65.90 4.73 66.01 4.61Q66.12 4.49 66.29 4.49L66.29 4.49Q66.36 4.49 66.42 4.52Q66.47 4.55 66.53 4.58L66.53 4.58Q66.46 4.45 66.33 4.34Q66.21 4.23 65.94 4.23L65.94 4.23Q65.69 4.23 65.56 4.33Q65.42 4.44 65.35 4.56L65.35 4.56Q65.28 4.72 65.28 4.89L65.28 4.89Q65.28 5.07 65.35 5.22L65.35 5.22Q65.42 5.35 65.56 5.45Q65.69 5.54 65.94 5.54L65.94 5.54Q66.54 5.56 67.00 5.80L67.00 5.80Q67.20 5.89 67.40 6.05Q67.59 6.20 67.75 6.43Q67.90 6.66 67.99 6.97Q68.08 7.28 68.08 7.69Z"></path></g><defs data-v-423bf9ae=""><linearGradient data-v-423bf9ae="" gradientTransform="rotate(25)" id="68a3744a-84a6-457f-9052-ae99f47b6040" x1="0%" y1="0%" x2="100%" y2="0%"><stop data-v-423bf9ae="" offset="0%" style="stop-color: rgb(233, 13, 202); stop-opacity: 1;"></stop><stop data-v-423bf9ae="" offset="100%" style="stop-color: rgb(21, 54, 241); stop-opacity: 1;"></stop></linearGradient></defs><g data-v-423bf9ae="" id="a2667103-4184-4290-87b6-360b65507751" transform="matrix(2.8125,0,0,2.8125,0,0)" stroke="none" fill="url(#68a3744a-84a6-457f-9052-ae99f47b6040)"><path d="M4.029 14.362L14.362 4.028l.707.707L4.736 15.07zM17.135 27.47L27.47 17.135l.707.707-10.333 10.333zM4.029 17.841l.707-.707 10.333 10.334-.707.707zM17.135 4.735l.708-.707L28.176 14.36l-.707.707z"></path><g><path d="M16 1.414l1.683 1.683L16 4.779l-1.683-1.683L16 1.414M16 0l-3.097 3.097L16 6.194l3.097-3.097L16 0zM16 27.221l1.683 1.683L16 30.586l-1.683-1.683L16 27.221m0-1.415l-3.097 3.097L16 32l3.097-3.097L16 25.806zM3.097 14.317L4.779 16l-1.683 1.683L1.414 16l1.683-1.683m0-1.414L0 16l3.097 3.097L6.194 16l-3.097-3.097zM28.903 14.317L30.586 16l-1.683 1.683L27.221 16l1.682-1.683m0-1.414L25.806 16l3.097 3.097L32 16l-3.097-3.097z"></path></g></g><!----></svg>